# xmcd
#
# Track frame offsets: 
#        150
#        18594
#        34958
#        62964
#        91822
#        109521
#        129385
#        159772
#        184242
#        204828
#        230854
#        245132
#        257890
#
# Disc length: 3714 seconds
#
# Revision: 0
# Processed by: cddbd v1.5.2PL0 Copyright (c) Steve Scherf et al.
# Submitted via: ExactAudioCopy v1.3
#
DISCID=b10e800d
DTITLE=Bob Daisley and Friends - Moore Blues For Gary
DYEAR=2018
DGENRE=Blues-Rock
TTITLE0=That's Why I Play The Blues
TTITLE1=The Blues Just Got Sadder
TTITLE2=Empty Rooms
TTITLE3=Still Got The Blues For You
TTITLE4=Texas Strut
TTITLE5=Nothing's The Same
TTITLE6=The Loner
TTITLE7=Torn Inside
TTITLE8=Don't Believe A Word
TTITLE9=Story Of The Blues
TTITLE10=This Ones For You
TTITLE11=Power Of The Blues
TTITLE12=Parisienne Walkways
EXTD=
EXTT0=
EXTT1=
EXTT2=
EXTT3=
EXTT4=
EXTT5=
EXTT6=
EXTT7=
EXTT8=
EXTT9=
EXTT10=
EXTT11=
EXTT12=
PLAYORDER=
